<?xml version="1.0" encoding="iso-8859-1"?>
<!-- Generator: Adobe Illustrator 19.0.0, SVG Export Plug-In . SVG Version: 6.00 Build 0)  -->
<svg version="1.1" id="Capa_1" xmlns="http://www.w3.org/2000/svg" xmlns:xlink="http://www.w3.org/1999/xlink" x="0px" y="0px"
	 viewBox="0 0 512 512" style="enable-background:new 0 0 512 512;" xml:space="preserve">
<path style="fill:#EFEDEE;" d="M113.552,7.5h210.672l38.311,91.939l81.529,27.901v331.544c0,25.197-20.419,45.616-45.616,45.616
	H113.552c-25.197,0-45.616-20.419-45.616-45.616V53.116C67.936,27.919,88.354,7.5,113.552,7.5z"/>
<path style="fill:#D4D2D3;" d="M444.064,127.34h-89.926c-16.521,0-29.914-13.393-29.914-29.914V7.5L444.064,127.34z"/>
<path style="fill:#283234;" d="M167.253,59.435c-24.959-34.585-51.025-14.874-54.007,3.605S95.481,81.476,95.481,81.476
	s6.797,20.182,32.349,11.037L167.253,59.435z"/>
<path style="fill:#333E40;" d="M113.246,140.611c0-49.18,41.353-89.19,92.184-89.19c50.83,0,92.183,40.011,92.183,89.19H113.246z"/>
<path style="fill:#283234;" d="M205.43,51.42c-5.107,0-10.117,0.411-15,1.187c43.72,6.952,77.183,43.765,77.183,88.003h30
	C297.613,91.431,256.26,51.42,205.43,51.42z"/>
<circle style="fill:#E6B09C;" cx="127.83" cy="140.61" r="19.453"/>
<path style="fill:#FFC4B0;" d="M127.831,140.257c0.157-32.502,34.064-54.195,63.665-40.772c2.236,1.014,4.262,2.068,6.034,3.07
	c4.906,2.775,10.895,2.775,15.801,0c1.772-1.002,3.798-2.056,6.034-3.07c29.601-13.423,63.508,8.27,63.665,40.772
	c0.001,0.118,0.001,0.236,0.001,0.354c0,41.204-34.743,74.607-77.6,74.607s-77.6-33.403-77.6-74.607
	C127.83,140.493,127.83,140.375,127.831,140.257z"/>
<path style="fill:#E6B09C;" d="M283.03,121.157c-1.425,0-2.811,0.163-4.149,0.454c-8.752-18.802-30.062-29.894-51.04-25.01
	c19.358,4.458,35.081,21.549,35.188,43.655c0.001,0.118,0.001,0.236,0.001,0.354c0,37.944-29.47,69.25-67.6,73.97
	c3.276,0.406,6.609,0.637,10,0.637c35.93,0,66.144-23.482,74.977-55.351c0.86,0.116,1.731,0.197,2.623,0.197
	c10.744,0,19.453-8.71,19.453-19.453C302.483,129.867,293.774,121.157,283.03,121.157z"/>
<path d="M449.041,121.72c0,0-119.515-119.515-119.517-119.517C328.132,0.812,326.183,0,324.215,0H113.542
	C84.253,0,60.426,23.828,60.426,53.116v405.768c0,29.289,23.828,53.116,53.116,53.116h284.896c29.289,0,53.116-23.828,53.116-53.116
	l-0.001-331.128c0.008-0.138,0.021-0.276,0.021-0.416C451.574,125.103,450.595,123.094,449.041,121.72z M331.715,97.427v-71.82
	l94.233,94.233h-71.82C341.769,119.84,331.715,109.785,331.715,97.427z M436.554,458.884c0,21.017-17.099,38.116-38.116,38.116
	H113.542c-21.018,0-38.116-17.099-38.116-38.116V53.116C75.426,32.099,92.524,15,113.542,15h203.172c0,0,0,82.399,0,82.426
	c0,17.343,12.906,33.169,29.883,36.652c2.433,0.499,4.952,0.761,7.531,0.761h82.427v324.045H436.554z"/>
<path d="M243.5,130.022c-4.142,0-7.5,3.358-7.5,7.5v6.248c0,4.142,3.358,7.5,7.5,7.5s7.5-3.358,7.5-7.5v-6.248
	C251,133.38,247.642,130.022,243.5,130.022z"/>
<path d="M165.5,130.022c-4.142,0-7.5,3.358-7.5,7.5v6.248c0,4.142,3.358,7.5,7.5,7.5s7.5-3.358,7.5-7.5v-6.248
	C173,133.38,169.642,130.022,165.5,130.022z"/>
<path d="M220.825,138.109c-3.118-2.726-7.857-2.409-10.583,0.71c-1.149,1.314-2.907,2.068-4.823,2.068s-3.673-0.753-4.822-2.067
	c-2.727-3.12-7.465-3.437-10.583-0.711c-3.119,2.726-3.438,7.464-0.711,10.583c3.997,4.573,9.871,7.196,16.116,7.196
	c6.244,0,12.118-2.623,16.116-7.196C224.261,145.574,223.944,140.835,220.825,138.109z"/>
<path d="M205.42,222.718c37.197,0,68.874-23.154,80.418-55.301c13.542-1.414,24.135-12.895,24.135-26.806
	c0-6.7-2.463-12.832-6.523-17.552c-4.725-24.813-19.625-47.235-41.155-61.796c-3.431-2.321-8.094-1.42-10.414,2.011
	c-2.321,3.431-1.42,8.094,2.011,10.414c14.638,9.9,25.651,24.055,31.485,40.072c-0.073-0.006-2.207-0.102-2.246-0.102
	c-3.344-5.598-7.79-10.616-12.965-14.588c-13.21-10.185-30.834-13.724-46.879-9.014c-0.061,0.018-0.121,0.037-0.181,0.055
	c-4.722,1.39-9.202,3.498-13.478,5.915c-0.03,0.017-0.063,0.028-0.094,0.045c-2.553,1.4-5.787,1.389-8.322-0.045
	c-4.268-2.414-8.789-4.536-13.501-5.922c-0.05-0.015-0.099-0.031-0.149-0.045c-16.071-4.704-33.721-1.251-46.912,9.031
	c-5.159,4.02-9.584,8.95-12.94,14.568c-0.039,0-2.187,0.096-2.263,0.103c2.171-5.991,5.07-11.717,8.616-17.064
	c0.019-0.027,0.042-0.051,0.061-0.078c5.633-8.412,12.779-15.794,21.02-21.676c14.583-10.408,32.37-16.023,50.276-16.023
	c7.995,0,15.941,1.092,23.619,3.247c3.989,1.118,8.128-1.207,9.248-5.195c1.119-3.988-1.207-8.128-5.195-9.248
	c-8.997-2.524-18.307-3.805-27.672-3.805c-12.302,0-24.399,2.235-35.717,6.459C157.767,36.107,146.19,32.94,138.277,32.94
	c-17.389,0-30.151,14.696-32.444,28.904c-1.804,11.18-8.985,12.068-10.463,12.13c-2.377,0.033-4.6,1.19-5.989,3.124
	c-1.409,1.961-1.787,4.481-1.016,6.77c0.248,0.737,6.16,17.591,25.549,18.477c-2.948,6.607-5.134,13.54-6.494,20.679
	c-4.077,4.724-6.551,10.868-6.551,17.584c0,13.91,10.593,25.392,24.135,26.806C136.546,199.563,168.223,222.718,205.42,222.718z
	 M205.42,207.718c-32.516,0-59.925-21.305-67.812-50.097c-1.708-6.254-2.594-12.797-2.226-19.283
	c0.553-9.73,5.035-19.062,12.278-25.59c10.343-9.322,25.43-12.499,38.957-7.181c6.234,2.451,11.841,6.568,18.802,6.568
	c7.124,0,12.461-4.063,18.809-6.571c13.062-5.161,28.494-2.201,38.911,7.148c7.553,6.838,12.327,16.679,12.38,27.608
	c0.028,5.838-0.748,11.683-2.291,17.313C265.337,186.419,237.931,207.718,205.42,207.718z M289.918,150.369
	c0.034-0.276,0.059-0.553,0.09-0.829c0.653-5.772,0.761-11.654-0.157-17.404c-0.078-0.489-0.151-0.979-0.243-1.465
	c0.113,0.076,0.228,0.145,0.338,0.225c0.413,0.298,0.81,0.621,1.184,0.968c2.355,2.185,3.844,5.291,3.844,8.748
	C294.973,144.635,292.975,148.201,289.918,150.369z M115.505,87.391c-3.337,0-5.882-0.915-7.796-2.143
	c5.717-3.535,11.153-9.99,12.932-21.012c1.27-7.869,8.659-16.294,17.636-16.294c5.608,0,11.464,3.093,17.207,9.027
	c-0.047,0.026-0.092,0.054-0.139,0.081c-4.237,2.396-8.303,5.104-12.146,8.09c-7.682,5.968-14.508,13.078-20.111,21.032
	C120.344,86.981,117.801,87.391,115.505,87.391z M120.922,150.368c-3.057-2.167-5.055-5.733-5.055-9.757
	c0-3.819,1.932-7.509,5.038-9.723c0.107-0.077,0.219-0.145,0.328-0.218c-0.104,0.546-0.186,1.097-0.274,1.646
	c-0.915,5.747-0.776,11.668-0.11,17.434C120.872,149.956,120.897,150.162,120.922,150.368z"/>
<path d="M124.523,256c0,4.142,3.358,7.5,7.5,7.5h247.934c4.142,0,7.5-3.358,7.5-7.5s-3.358-7.5-7.5-7.5H132.023
	C127.881,248.5,124.523,251.858,124.523,256z"/>
<path d="M379.957,294.944H132.023c-4.142,0-7.5,3.358-7.5,7.5s3.358,7.5,7.5,7.5h247.934c4.142,0,7.5-3.358,7.5-7.5
	S384.099,294.944,379.957,294.944z"/>
<path d="M379.957,341.388H132.023c-4.142,0-7.5,3.358-7.5,7.5s3.358,7.5,7.5,7.5h247.934c4.142,0,7.5-3.358,7.5-7.5
	S384.099,341.388,379.957,341.388z"/>
<path d="M379.957,387.832H132.023c-4.142,0-7.5,3.358-7.5,7.5s3.358,7.5,7.5,7.5h247.934c4.142,0,7.5-3.358,7.5-7.5
	S384.099,387.832,379.957,387.832z"/>
<path d="M379.957,446.498h-82.354c-4.142,0-7.5,3.358-7.5,7.5s3.358,7.5,7.5,7.5h82.354c4.142,0,7.5-3.358,7.5-7.5
	S384.099,446.498,379.957,446.498z"/>
<g>
</g>
<g>
</g>
<g>
</g>
<g>
</g>
<g>
</g>
<g>
</g>
<g>
</g>
<g>
</g>
<g>
</g>
<g>
</g>
<g>
</g>
<g>
</g>
<g>
</g>
<g>
</g>
<g>
</g>
</svg>
