<?xml version="1.0" encoding="utf-8"?>
<!-- Generator: Adobe Illustrator 22.0.1, SVG Export Plug-In . SVG Version: 6.00 Build 0)  -->
<svg version="1.1" id="Layer_1" xmlns="http://www.w3.org/2000/svg" xmlns:xlink="http://www.w3.org/1999/xlink" x="0px" y="0px"
	 viewBox="0 0 1336 679" style="enable-background:new 0 0 1336 679;" xml:space="preserve">
<style type="text/css">
	.st0{fill:#F6CDB5;}
	.st1{opacity:0.15;fill:#EC8087;enable-background:new    ;}
	.st2{opacity:0.1;enable-background:new    ;}
	.st3{fill:#E8E8E8;}
	.st4{opacity:8.000000e-02;enable-background:new    ;}
	.st5{fill:#394049;}
	.st6{fill:#EC8087;}
	.st7{fill:#4DB1E0;}
	.st8{fill:#FFFFFF;}
	.st9{opacity:0.4;fill:#FFFFFF;enable-background:new    ;}
	.st10{fill:#8D6A59;}
	.st11{opacity:7.000000e-02;enable-background:new    ;}
	.st12{fill:#AD82C6;}
	.st13{fill:#F6D83E;}
</style>
<circle class="st0" cx="89.4" cy="408.3" r="40.1"/>
<circle class="st1" cx="89.4" cy="408.3" r="40.1"/>
<path class="st2" d="M89.4,368.2c-4.6,0-9,0.8-13.1,2.2c-0.4,4.6-0.6,9.1-0.6,13.8v51.5c0,3.5,0.1,6.9,0.3,10.3
	c4.2,1.5,8.6,2.3,13.3,2.3c22.1,0,40.1-17.9,40.1-40.1C129.5,386.2,111.5,368.2,89.4,368.2z"/>
<circle class="st0" cx="422.6" cy="408.3" r="40.1"/>
<circle class="st1" cx="422.6" cy="408.3" r="40.1"/>
<path class="st2" d="M422.6,368.2c4.6,0,9,0.8,13.1,2.2c0.4,4.6,0.6,9.1,0.6,13.8v51.5c0,3.5-0.1,6.9-0.3,10.3
	c-4.2,1.5-8.6,2.3-13.3,2.3c-22.1,0-40.1-17.9-40.1-40.1C382.5,386.2,400.5,368.2,422.6,368.2z"/>
<path class="st3" d="M129.5,587.9C56,599.7,45.6,665.4,44.6,693.4c-0.3,6.9,5.3,12.6,12.2,12.6h72.7V587.9z"/>
<path class="st4" d="M118.4,590.2C88.1,619.9,68.6,660.7,66.6,706h62.9V587.9C125.6,588.6,121.9,589.3,118.4,590.2z"/>
<path class="st3" d="M382.5,587.9c73.4,11.7,83.8,77.4,84.9,105.4c0.3,6.9-5.3,12.6-12.2,12.6h-72.7V587.9z"/>
<path class="st4" d="M393.6,590.2c30.3,29.7,49.8,70.5,51.8,115.8h-62.9V587.9C386.4,588.6,390.1,589.3,393.6,590.2z"/>
<path class="st3" d="M429.1,706c0-95.6-77.5-173.1-173.1-173.1S82.9,610.4,82.9,706H429.1z"/>
<path class="st2" d="M256,532.9c-44.2,0-84.5,16.6-115.1,43.8c28.9,30.4,69.8,49.3,115.1,49.3l0,0c45.3,0,86.1-18.9,115.1-49.3
	C340.5,549.5,300.2,532.9,256,532.9z"/>
<path class="st0" d="M256,217.6L256,217.6c-92,0-166.6,74.6-166.6,166.6v51.5c0,92,74.6,166.6,166.6,166.6l0,0
	c92,0,166.6-74.6,166.6-166.6v-51.5C422.6,292.2,348,217.6,256,217.6z"/>
<g>
	<path class="st5" d="M89.4,344.7v82.5l0,0c22-18.5,34.8-45.8,34.8-74.6v-7.9H89.4z"/>
	<path class="st5" d="M422.6,344.7v82.5l0,0c-22-18.5-34.8-45.8-34.8-74.6v-7.9H422.6z"/>
	<path class="st5" d="M149.5,421.6c-4.1,0-7.5-3.4-7.5-7.5v-23.5c0-4.1,3.4-7.5,7.5-7.5s7.5,3.4,7.5,7.5v23.5
		C157,418.2,153.6,421.6,149.5,421.6z"/>
	<path class="st5" d="M362.5,421.6c-4.1,0-7.5-3.4-7.5-7.5v-23.5c0-4.1,3.4-7.5,7.5-7.5c4.1,0,7.5,3.4,7.5,7.5v23.5
		C370,418.2,366.7,421.6,362.5,421.6z"/>
</g>
<g>
	<path class="st6" d="M165.3,454h-31.6c-4.1,0-7.5-3.4-7.5-7.5s3.4-7.5,7.5-7.5h31.6c4.1,0,7.5,3.4,7.5,7.5S169.4,454,165.3,454z"/>
	<path class="st6" d="M378.3,454h-31.6c-4.1,0-7.5-3.4-7.5-7.5s3.4-7.5,7.5-7.5h31.6c4.1,0,7.5,3.4,7.5,7.5S382.5,454,378.3,454z"/>
</g>
<g>
	<path class="st5" d="M256,454.4c-9.6,0-18.7-4.6-24.4-12.3c-2.5-3.3-1.8-8,1.6-10.5c3.3-2.5,8-1.8,10.5,1.6c2.9,4,7.4,6.2,12.3,6.2
		c4.9,0,9.4-2.3,12.3-6.2c2.5-3.3,7.2-4,10.5-1.6c3.3,2.5,4,7.2,1.6,10.5C274.7,449.8,265.6,454.4,256,454.4z"/>
	<circle class="st5" cx="256" cy="216.6" r="22.6"/>
</g>
<path class="st7" d="M306.9,216.6H205.1c-63.9,0-115.7,51.8-115.7,115.7v21.6h333.2v-21.6C422.6,268.4,370.8,216.6,306.9,216.6z"/>
<path class="st8" d="M329.8,327H182.2V290c0-15,12.1-27.1,27.1-27.1h93.5c15,0,27.1,12.1,27.1,27.1V327z"/>
<path class="st6" d="M278.6,302.5h-45.1c-4.1,0-7.5-3.4-7.5-7.5c0-4.1,3.4-7.5,7.5-7.5h45.1c4.1,0,7.5,3.4,7.5,7.5
	C286.1,299.1,282.7,302.5,278.6,302.5z"/>
<path class="st9" d="M365,327H147c-5.6,0-10.2,4.5-10.2,10.2v6.7c0,5.6,4.5,10.2,10.2,10.2H365c5.6,0,10.2-4.5,10.2-10.2v-6.7
	C375.1,331.5,370.6,327,365,327z"/>
<path class="st6" d="M321.1,705.9c0-35.9-29.1-65.1-65.1-65.1s-65.1,29.1-65.1,65.1H321.1z"/>
<path class="st8" d="M290.4,705.9c0-19-15.4-34.4-34.4-34.4s-34.4,15.4-34.4,34.4H290.4z"/>
<circle class="st5" cx="1085.8" cy="395.3" r="201.3"/>
<circle class="st10" cx="946.3" cy="456.9" r="33.5"/>
<circle class="st11" cx="946.3" cy="456.9" r="33.5"/>
<path class="st2" d="M946.3,423.3c-3.8,0-7.5,0.7-10.9,1.8c-0.3,3.8-0.5,7.7-0.5,11.5v43.1c0,2.9,0.1,5.8,0.3,8.6
	c3.5,1.2,7.2,1.9,11.1,1.9c18.5,0,33.5-15,33.5-33.5C979.9,438.3,964.8,423.3,946.3,423.3z"/>
<circle class="st10" cx="1225.2" cy="456.9" r="33.5"/>
<circle class="st11" cx="1225.2" cy="456.9" r="33.5"/>
<path class="st2" d="M1225.2,423.3c3.8,0,7.5,0.7,10.9,1.8c0.3,3.8,0.5,7.7,0.5,11.5v43.1c0,2.9-0.1,5.8-0.3,8.6
	c-3.5,1.2-7.2,1.9-11.1,1.9c-18.5,0-33.5-15-33.5-33.5C1191.7,438.3,1206.7,423.3,1225.2,423.3z"/>
<path class="st12" d="M979.9,607.2c-61.5,9.8-70.2,64.8-71.1,88.2c-0.2,5.8,4.4,10.6,10.2,10.6h60.8L979.9,607.2L979.9,607.2
	L979.9,607.2z"/>
<path class="st4" d="M970.6,609.1c-25.4,24.9-41.7,59-43.4,96.9h52.6v-98.8C976.6,607.7,973.6,608.4,970.6,609.1z"/>
<path class="st12" d="M1191.7,607.2c61.5,9.8,70.2,64.8,71.1,88.2c0.2,5.8-4.4,10.6-10.2,10.6h-60.8L1191.7,607.2L1191.7,607.2
	L1191.7,607.2z"/>
<path class="st4" d="M1200.9,609.1c25.4,24.9,41.7,59,43.4,96.9h-52.6v-98.8C1194.9,607.7,1198,608.4,1200.9,609.1z"/>
<path class="st6" d="M1230.6,706c0-80-64.9-144.9-144.9-144.9c-80,0-144.9,64.9-144.9,144.9H1230.6z"/>
<path class="st2" d="M1085.8,561.2c-37,0-70.7,13.9-96.3,36.7c24.2,25.4,58.4,41.3,96.3,41.3l0,0c37.9,0,72.1-15.9,96.3-41.3
	C1156.5,575,1122.8,561.2,1085.8,561.2z"/>
<path class="st10" d="M1085.8,297.2L1085.8,297.2c-77,0-139.5,62.4-139.5,139.5v43.1c0,77,62.4,139.5,139.5,139.5l0,0
	c77,0,139.5-62.4,139.5-139.5v-43.1C1225.2,359.7,1162.8,297.2,1085.8,297.2z"/>
<g>
	<path class="st5" d="M991.1,460.2c-4.1,0-7.5-3.4-7.5-7.5v-20.9c0-4.1,3.4-7.5,7.5-7.5s7.5,3.4,7.5,7.5v20.9
		C998.6,456.9,995.3,460.2,991.1,460.2z"/>
	<path class="st5" d="M1180.4,460.2c-4.1,0-7.5-3.4-7.5-7.5v-20.9c0-4.1,3.4-7.5,7.5-7.5c4.1,0,7.5,3.4,7.5,7.5v20.9
		C1187.9,456.9,1184.6,460.2,1180.4,460.2z"/>
</g>
<g>
	<path class="st6" d="M1005.2,489.1h-28c-4.1,0-7.5-3.4-7.5-7.5s3.4-7.5,7.5-7.5h28c4.1,0,7.5,3.4,7.5,7.5
		S1009.3,489.1,1005.2,489.1z"/>
	<path class="st6" d="M1194.4,489.1h-28c-4.1,0-7.5-3.4-7.5-7.5s3.4-7.5,7.5-7.5h28c4.1,0,7.5,3.4,7.5,7.5
		S1198.6,489.1,1194.4,489.1z"/>
</g>
<path class="st5" d="M1085.8,489.3c-8.8,0-17.1-4.2-22.3-11.3c-2.5-3.3-1.8-8,1.6-10.5s8-1.8,10.5,1.6c2.5,3.3,6.2,5.2,10.3,5.2
	c4.1,0,7.8-1.9,10.3-5.2c2.5-3.3,7.2-4,10.5-1.6c3.3,2.5,4,7.2,1.6,10.5C1102.9,485.1,1094.5,489.3,1085.8,489.3z"/>
<g>
	<path class="st6" d="M1251.7,231L1251.7,231c-8.3,0-15.1,6.8-15.1,15.1v35.3h35.3c8.3,0,15.1-6.8,15.1-15.1l0,0
		C1287.1,246.8,1271.2,231,1251.7,231z"/>
	<path class="st6" d="M1186.2,266.3L1186.2,266.3c0,8.3,6.8,15.1,15.1,15.1h35.3v-35.3c0-8.3-6.8-15.1-15.1-15.1l0,0
		C1202,231,1186.2,246.8,1186.2,266.3z"/>
	<path class="st6" d="M1221.6,331.9L1221.6,331.9c8.3,0,15.1-6.8,15.1-15.1v-35.3h-35.3c-8.3,0-15.1,6.8-15.1,15.1l0,0
		C1186.2,316,1202,331.9,1221.6,331.9z"/>
	<path class="st6" d="M1287.1,296.5L1287.1,296.5c0-8.3-6.8-15.1-15.1-15.1h-35.3v35.3c0,8.3,6.8,15.1,15.1,15.1l0,0
		C1271.2,331.9,1287.1,316,1287.1,296.5z"/>
</g>
<circle class="st13" cx="1236.6" cy="281.4" r="22.9"/>
</svg>
