<?xml version="1.0" encoding="iso-8859-1"?>
<!-- Generator: Adobe Illustrator 19.0.0, SVG Export Plug-In . SVG Version: 6.00 Build 0)  -->
<svg version="1.1" id="Capa_1" xmlns="http://www.w3.org/2000/svg" xmlns:xlink="http://www.w3.org/1999/xlink" x="0px" y="0px"
	 viewBox="0 0 511.996 511.996" style="enable-background:new 0 0 511.996 511.996;" xml:space="preserve">
<path style="fill:#E8E7E5;" d="M425.929,298.917c43.392,0,78.568-35.176,78.568-78.568c0-43.392-35.176-78.568-78.568-78.568
	H196.322v157.136H425.929z"/>
<path style="opacity:0.1;enable-background:new    ;" d="M196.322,298.917h119.06c18.711-20.828,30.099-48.367,30.099-78.568
	s-11.388-57.74-30.099-78.568h-119.06V298.917z"/>
<path style="fill:#90DCA3;" d="M18.206,346.659c-14.306,14.306-14.306,37.501,0,51.806c14.307,14.306,37.5,14.306,51.806,0
	l94.359-94.359c14.306-14.306,14.306-37.501,0-51.806c-14.307-14.306-37.5-14.306-51.806,0L18.206,346.659z"/>
<rect x="71.582" y="281.755" transform="matrix(-0.7071 0.7071 -0.7071 -0.7071 392.9043 474.0266)" style="opacity:0.1;enable-background:new    ;" width="53.392" height="73.262"/>
<path style="fill:#FBE096;" d="M167.873,323.127l-74.329-74.329l-19.961,19.961c-10.316,10.315-10.316,27.041,0,37.358
	l36.972,36.972c10.316,10.315,27.041,10.315,37.358,0L167.873,323.127z"/>
<circle style="fill:#404B58;" cx="196.325" cy="220.346" r="117.615"/>
<path style="opacity:0.1;enable-background:new    ;" d="M274.164,132.19c18.327,20.74,29.454,47.989,29.454,77.842
	c0,64.957-52.658,117.615-117.615,117.615c-29.852,0-57.102-11.128-77.842-29.454c21.55,24.388,53.056,39.773,88.16,39.773
	c64.957,0,117.615-52.658,117.615-117.615C313.937,185.246,298.552,153.739,274.164,132.19z"/>
<circle style="fill:#79C6E4;" cx="196.325" cy="220.346" r="76.283"/>
<path style="opacity:0.1;enable-background:new    ;" d="M196.322,144.071c-42.128,0-76.278,34.151-76.278,76.278
	c0,23.239,10.405,44.036,26.796,58.026c-11.371-13.323-18.252-30.593-18.252-49.482c0-42.128,34.151-76.278,76.278-76.278
	c18.889,0,36.16,6.88,49.482,18.252C240.359,154.476,219.562,144.071,196.322,144.071z"/>
<path d="M425.929,134.281H287.045c-22.814-24.035-55.047-39.046-90.722-39.046c-32.838,0-63.866,12.627-87.366,35.555
	c-2.964,2.893-3.023,7.641-0.13,10.606c2.892,2.964,7.64,3.023,10.606,0.13c20.682-20.179,47.988-31.291,76.89-31.291
	c60.716,0,110.114,49.397,110.114,110.114c0,60.718-49.397,110.115-110.114,110.115c-60.717,0-110.115-49.397-110.115-110.115
	c0-18.112,4.489-36.064,12.983-51.918c1.956-3.651,0.582-8.197-3.07-10.153c-3.65-1.953-8.197-0.581-10.152,3.07
	c-9.656,18.025-14.761,38.428-14.761,59.001c0,12.199,1.762,23.991,5.033,35.146l-7.96,7.961
	c-8.553,8.553-11.565,20.574-9.054,31.577l-46.322,46.323c-17.208,17.207-17.208,45.206,0,62.414
	c8.564,8.563,19.81,12.992,31.178,12.991c8.038,0,16.139-2.214,23.391-6.746c3.513-2.195,4.581-6.822,2.386-10.335
	c-2.195-3.513-6.822-4.583-10.334-2.386c-11.554,7.218-26.362,5.521-36.013-4.13c-11.358-11.358-11.358-29.84,0-41.2l42.755-42.755
	c0.636,0.758,1.303,1.5,2.015,2.212l36.972,36.971c0.713,0.713,1.454,1.379,2.212,2.015l-23.598,23.595
	c-2.929,2.929-2.929,7.678,0,10.606c1.464,1.464,3.384,2.197,5.303,2.197c1.919,0,3.839-0.732,5.303-2.197l27.163-27.163
	c2.497,0.57,5.045,0.863,7.595,0.863c8.685,0,17.371-3.306,23.982-9.918l7.96-7.96c11.154,3.27,22.948,5.033,35.146,5.033
	c35.675,0,67.909-15.011,90.722-39.046h138.884c47.458,0,86.069-38.611,86.069-86.069
	C511.997,172.89,473.388,134.281,425.929,134.281z M142.609,337.785c-7.375,7.374-19.375,7.375-26.751,0l-36.972-36.972
	c-7.374-7.375-7.374-19.375,0-26.75l3.05-3.05c12.593,28.32,35.401,51.129,63.723,63.723L142.609,337.785z M425.929,291.417H299.234
	c13.992-20.199,22.204-44.691,22.204-71.068s-8.212-50.869-22.204-71.068h126.695c39.187,0,71.068,31.88,71.068,71.068
	C496.997,259.536,465.116,291.417,425.929,291.417z M196.323,304.128c46.196,0,83.778-37.583,83.778-83.778
	s-37.583-83.778-83.778-83.778s-83.778,37.583-83.778,83.778C112.545,266.545,150.127,304.128,196.323,304.128z M196.323,151.571
	c37.925,0,68.778,30.853,68.778,68.778s-30.853,68.778-68.778,68.778s-68.778-30.853-68.778-68.778
	C127.545,182.425,158.399,151.571,196.323,151.571z"/>
<g>
</g>
<g>
</g>
<g>
</g>
<g>
</g>
<g>
</g>
<g>
</g>
<g>
</g>
<g>
</g>
<g>
</g>
<g>
</g>
<g>
</g>
<g>
</g>
<g>
</g>
<g>
</g>
<g>
</g>
</svg>
